<svg id="Layer_1" data-name="Layer 1" xmlns="http://www.w3.org/2000/svg" viewBox="0 0 275 200"><defs><style>.cls-1,.cls-2{fill:#fff;}.cls-2{opacity:0.6;}</style></defs><title>PBP009 Laurels All Dark BG FA</title><path class="cls-1" d="M77.29,125.45c-.24-.09-24.4-8.87-33.14-32.36C38.24,77.24,40.52,58.39,50.89,37a3.68,3.68,0,0,1-3.44-1,3.42,3.42,0,0,1-.27-.33c-10.7,22.27-13,42-6.68,58.81C49.92,119.7,74.93,128.76,76,129.13a1.95,1.95,0,0,0,1.3-3.68Z"/><path class="cls-1" d="M66.16,120.46s-9.57-6.5-16.72,3.9a10.47,10.47,0,0,0,11.7,5.2c8.45-1.62,7.8-6.83,7.8-6.83Z"/><path class="cls-1" d="M71.49,119.88s6.93-9.26-3.13-16.88a10.47,10.47,0,0,0-5.73,11.45c1.24,8.52,6.46,8.1,6.46,8.1Z"/><path class="cls-1" d="M56.33,110.39s10.06-5.71,3.89-16.72a10.47,10.47,0,0,0-9.84,8.19c-2.28,8.3,2.67,10,2.67,10Z"/><path class="cls-1" d="M47.23,96.3s10.87-3.95,6.63-15.83A10.47,10.47,0,0,0,42.79,86.9c-3.63,7.8,1,10.32,1,10.32Z"/><path class="cls-1" d="M43.15,79.5s11.56-.25,11.36-12.87A10.47,10.47,0,0,0,42,69.18c-5.94,6.22-2.4,10.08-2.4,10.08Z"/><path class="cls-1" d="M45,61.85S56.3,64.28,59,52a10.47,10.47,0,0,0-12.8-.43c-7.22,4.67-4.67,9.25-4.67,9.25Z"/><path class="cls-1" d="M51.49,45.78s11.24,2.74,14.29-9.51A10.47,10.47,0,0,0,53,35.5c-7.34,4.48-4.91,9.13-4.91,9.13Z"/><path class="cls-1" d="M53.61,36.46s10.08-4.08,8.26-14.86c0,0-6.25-1-10.64,6.38s-.79,9.47-.79,9.47Z"/><path class="cls-1" d="M51.72,107.59s-7.44-8.86-17.15-.8A10.47,10.47,0,0,0,44.42,115c8.57.74,9.36-4.44,9.36-4.44Z"/><path class="cls-1" d="M43,93.57s-2.46-11.3-14.8-8.69a10.47,10.47,0,0,0,4.9,11.83c7.25,4.64,10.36.42,10.36.42Z"/><path class="cls-1" d="M39,75.29s2.12-11.37-10.27-13.75a10.47,10.47,0,0,0-.07,12.8c4.88,7.09,9.38,4.41,9.38,4.41Z"/><path class="cls-1" d="M41.44,55.07s2.85-11.21-9.37-14.38a10.47,10.47,0,0,0-.9,12.77c4.41,7.39,9.08,5,9.08,5Z"/><path class="cls-1" d="M48.62,39.93s6.92-9.27-3.15-16.87a10.47,10.47,0,0,0-5.72,11.46c1.25,8.51,6.47,8.1,6.47,8.1Z"/><path class="cls-1" d="M197.71,125.45c.24-.09,24.4-8.87,33.14-32.36,5.9-15.85,3.62-34.69-6.75-56.11a3.68,3.68,0,0,0,3.44-1,3.42,3.42,0,0,0,.27-.33c10.7,22.27,13,42,6.68,58.81-9.41,25.21-34.42,34.26-35.48,34.64a1.95,1.95,0,0,1-1.3-3.68Z"/><path class="cls-1" d="M208.84,120.46s9.57-6.5,16.72,3.9a10.47,10.47,0,0,1-11.7,5.2c-8.45-1.62-7.8-6.83-7.8-6.83Z"/><path class="cls-1" d="M203.51,119.88s-6.93-9.26,3.13-16.88a10.47,10.47,0,0,1,5.73,11.45c-1.24,8.52-6.46,8.1-6.46,8.1Z"/><path class="cls-1" d="M218.67,110.39s-10.06-5.71-3.89-16.72a10.47,10.47,0,0,1,9.84,8.19c2.28,8.3-2.67,10-2.67,10Z"/><path class="cls-1" d="M227.77,96.3s-10.87-3.95-6.63-15.83a10.47,10.47,0,0,1,11.07,6.44c3.63,7.8-1,10.32-1,10.32Z"/><path class="cls-1" d="M231.85,79.5s-11.56-.25-11.36-12.87A10.47,10.47,0,0,1,233,69.18c5.94,6.22,2.4,10.08,2.4,10.08Z"/><path class="cls-1" d="M230,61.85S218.7,64.28,216,52a10.47,10.47,0,0,1,12.8-.43c7.22,4.67,4.67,9.25,4.67,9.25Z"/><path class="cls-1" d="M223.51,45.78s-11.24,2.74-14.29-9.51A10.47,10.47,0,0,1,222,35.5c7.34,4.48,4.91,9.13,4.91,9.13Z"/><path class="cls-1" d="M221.39,36.46s-10.08-4.08-8.26-14.86c0,0,6.25-1,10.64,6.38s.79,9.47.79,9.47Z"/><path class="cls-1" d="M223.28,107.59s7.44-8.86,17.15-.8a10.47,10.47,0,0,1-9.84,8.19c-8.57.74-9.36-4.44-9.36-4.44Z"/><path class="cls-1" d="M232,93.57s2.46-11.3,14.8-8.69a10.47,10.47,0,0,1-4.9,11.83c-7.25,4.64-10.36.42-10.36.42Z"/><path class="cls-1" d="M236,75.29s-2.12-11.37,10.27-13.75a10.47,10.47,0,0,1,.07,12.8c-4.88,7.09-9.38,4.41-9.38,4.41Z"/><path class="cls-1" d="M233.56,55.07s-2.85-11.21,9.37-14.38a10.47,10.47,0,0,1,.9,12.77c-4.41,7.39-9.08,5-9.08,5Z"/><path class="cls-1" d="M226.38,39.93s-6.92-9.27,3.15-16.87a10.47,10.47,0,0,1,5.72,11.46c-1.25,8.51-6.47,8.1-6.47,8.1Z"/><path class="cls-1" d="M169.37,80.47v3H173V96h3.06V83.42h3.78v-3ZM160,90.38l1.56-3.78,1.5,3.78ZM165.26,96h3.54l-7-16.14h-.17l-7,16.14h3l1.27-3h5.15ZM151.73,80.47h-3.06v6.27h-6.94V80.47h-3.06V96h3.06V89.69h6.94V96h3.06Zm-27.11,0v3h3.63V96h3.06V83.42h3.78v-3Zm-11.08,3.76,1.16-2.34a9.9,9.9,0,0,0-2.26-1.11,9.17,9.17,0,0,0-2.89-.39A5.36,5.36,0,0,0,106,81.71a4.2,4.2,0,0,0-1.32,3.23,3.84,3.84,0,0,0,.64,2.28,4.57,4.57,0,0,0,1.53,1.39,20.11,20.11,0,0,0,2.22,1q2.26.89,2.26,2.09a1.43,1.43,0,0,1-.72,1.34,3.33,3.33,0,0,1-1.69.41,5.46,5.46,0,0,1-1.86-.38,7.36,7.36,0,0,1-1.84-1l-1.35,2.38a8.64,8.64,0,0,0,2.55,1.26,9.57,9.57,0,0,0,2.76.41,6.35,6.35,0,0,0,2.87-.6,4.34,4.34,0,0,0,1.83-1.62,4.21,4.21,0,0,0,.62-2.23,4.6,4.6,0,0,0-.52-2.3,4.12,4.12,0,0,0-1.3-1.42,9,9,0,0,0-1.88-.92A10.15,10.15,0,0,1,108.7,86a1.58,1.58,0,0,1-.81-1.3,1.38,1.38,0,0,1,.56-1.2,2.67,2.67,0,0,1,1.57-.4,7.55,7.55,0,0,1,3.52,1.12M97.55,96h3.06V80.47H97.55Z"/><path class="cls-1" d="M92.69,57.85l-2.64,8.63-3.48-8.63h-3l1.22,3.06L82.4,66.84l-3.06-9H75.75L82,74l4.3-9.24L90,73.95l6-16.1Zm15.13-.11V64h-6.94V57.74H97.82V73.27h3.06V67h6.94v6.31h3.06V57.74Zm17.75,0v3h3.63V73.27h3.06V60.7H136v-3Zm18.59,0V73.27H155v-3h-7.83V67h6.67V64h-6.67V60.7h7.53v-3Zm22.43,0-3.33,8.76-3.54-8.76H156L163.13,74l7.09-16.25Zm5.46,0V73.27h10.89v-3h-7.83V67h6.67V64h-6.67V60.7h7.53v-3Zm-52.83,6.14,1.5,3.78h-3.06Zm.08-6.75-7,16.14h3l1.27-3h5.15l1.2,3h3.54l-7-16.14Zm66,0V73.27h3.1l-.06-9.18,10.87,9.81h.08V57.74h-3.08l.06,9.35-10.85-10Z"/><path class="cls-1" d="M169.9,46.52h13.45V44.75H169.9Zm-11.51,3a1,1,0,0,0,.32.76,1.06,1.06,0,0,0,.73.29,1,1,0,0,0,1-1.05,1,1,0,0,0-.32-.75,1,1,0,0,0-.7-.31,1.09,1.09,0,0,0-1.05,1.07m-2.51,0a1,1,0,0,0,.32.76,1.06,1.06,0,0,0,.73.29,1,1,0,0,0,1-1.05,1,1,0,0,0-.32-.75,1,1,0,0,0-.7-.31,1.09,1.09,0,0,0-1.05,1.07m-2.51,0a1,1,0,0,0,.32.76,1.06,1.06,0,0,0,.73.29,1,1,0,0,0,1-1.05,1,1,0,0,0-.32-.75,1,1,0,0,0-.7-.31,1.09,1.09,0,0,0-1.05,1.07M146,39.8v2h2.51v8.71h2.12V41.84h2.61v-2Zm-6.06,6.87L141,44l1,2.61Zm3.65,3.89H146l-4.85-11.18H141L136.2,50.55h2.09l.88-2.1h3.56ZM134.64,39.8h-2.12v4.34h-4.81V39.8h-2.12V50.55h2.12V46.18h4.81v4.37h2.12Zm-18.33,0v2h2.51v8.71h2.12V41.84h2.61v-2ZM92.62,46.52h13.45V44.75H92.62Z"/><path class="cls-1" d="M120,154.11h-1.44a.6.6,0,0,0-.6.6v3.86a.6.6,0,0,0,.6.6h.7a.6.6,0,0,0,.6-.6v-.88H120a1.79,1.79,0,1,0,0-3.58"/><path class="cls-1" d="M125.42,157.34h-.93v-2.63a.6.6,0,0,0-.6-.6h-.71a.6.6,0,0,0-.6.6v3.86a.6.6,0,0,0,.6.6h2.24a.6.6,0,0,0,.6-.6v-.63a.6.6,0,0,0-.6-.6"/><path class="cls-1" d="M129.76,154.38a.61.61,0,0,0-.54-.33h-.06a.61.61,0,0,0-.54.34l-1.86,3.93a.59.59,0,0,0,0,.57.6.6,0,0,0,.51.28H128a.7.7,0,0,0,.66-.43l.08-.18h1l.09.19a.68.68,0,0,0,.65.42h.66a.59.59,0,0,0,.54-.85Z"/><path class="cls-1" d="M135.63,154.42a.6.6,0,0,0-.53-.31h-.77a.6.6,0,0,0-.5.26l-.43.62-.44-.63a.61.61,0,0,0-.48-.24h-.77a.6.6,0,0,0-.5.93l1.23,1.82v1.7a.6.6,0,0,0,.6.6h.71a.6.6,0,0,0,.6-.6v-1.71l1.26-1.83a.6.6,0,0,0,0-.61"/><path class="cls-1" d="M129.83,160.76h-1.44a.6.6,0,0,0-.6.6v3.86a.6.6,0,0,0,.6.6h.7a.6.6,0,0,0,.6-.6v-.88h.14a1.79,1.79,0,1,0,0-3.58"/><path class="cls-1" d="M135.31,164h-.93v-2.63a.6.6,0,0,0-.6-.6h-.71a.6.6,0,0,0-.6.6v3.86a.6.6,0,0,0,.6.6h2.24a.6.6,0,0,0,.6-.6v-.64a.6.6,0,0,0-.6-.6"/><path class="cls-1" d="M139.65,161a.61.61,0,0,0-.54-.33h-.06a.61.61,0,0,0-.54.34L136.65,165a.59.59,0,0,0,0,.57.6.6,0,0,0,.51.28h.66a.7.7,0,0,0,.66-.43l.08-.18h1l.09.19a.68.68,0,0,0,.65.42H141a.59.59,0,0,0,.54-.85Z"/><path class="cls-1" d="M145.6,161.07a.6.6,0,0,0-.53-.31h-.77a.6.6,0,0,0-.5.26l-.43.61-.44-.63a.61.61,0,0,0-.48-.24h-.77a.6.6,0,0,0-.5.93l1.23,1.82v1.7a.6.6,0,0,0,.6.6h.71a.6.6,0,0,0,.6-.6v-1.71l1.26-1.83a.6.6,0,0,0,0-.61"/><path class="cls-2" d="M121.26,162.53v0a1.8,1.8,0,0,0-1.69-1.77h-.78a.6.6,0,0,0-.6.6v3.86a.6.6,0,0,0,.42.57l.18,0h1.44a1.78,1.78,0,0,0,1-3.26"/><path class="cls-2" d="M126.66,161a.6.6,0,0,0-.53-.31h-.77a.6.6,0,0,0-.5.26l-.43.62L124,161a.61.61,0,0,0-.48-.24h-.77a.6.6,0,0,0-.5.93l1.23,1.82v1.7a.6.6,0,0,0,.6.6h.71a.6.6,0,0,0,.6-.6v-1.71l1.26-1.84a.6.6,0,0,0,0-.61"/><path class="cls-1" d="M96,161.38a.52.52,0,0,0-.15-.37h0l-.53-.53.53-.53a.52.52,0,1,0-.74-.74l-.53.53-.53-.53a.52.52,0,0,0-.86.57.52.52,0,0,0,.11.17h0l.53.53-.53.53a.52.52,0,0,0,.74.74l.53-.53.53.53a.52.52,0,0,0,.89-.37"/><path class="cls-1" d="M102.71,159.2a.52.52,0,1,1-.52-.52.52.52,0,0,1,.52.52"/><path class="cls-1" d="M102.71,161.75a.52.52,0,1,1-.52-.52.52.52,0,0,1,.52.52"/><path class="cls-1" d="M103.46,161a.52.52,0,1,1,.52-.52.53.53,0,0,1-.52.52"/><path class="cls-1" d="M100.91,161a.52.52,0,1,1,.52-.52.52.52,0,0,1-.52.52"/><path class="cls-1" d="M112.69,150.53l-12.64-7.3a3.33,3.33,0,0,0-3,0l-12.64,7.3a3.32,3.32,0,0,0-1.5,2.6v25.31L90.74,174l6.32,3.65a3.33,3.33,0,0,0,3,0l12.64-7.29a3.33,3.33,0,0,0,1.5-2.6V153.12A3.32,3.32,0,0,0,112.69,150.53ZM110.29,166a2.49,2.49,0,0,1-1.12,1.95l-9.48,5.47a2.3,2.3,0,0,1-1.13.27v-4.32h-.1a1.49,1.49,0,0,1-.65-.17l-3.16-1.83-3.91,2.24V156.89a1.66,1.66,0,0,1,.75-1.3l6.32-3.65a1.69,1.69,0,0,1,.75-.19v-4.43a2.3,2.3,0,0,1,1.13.27l9.48,5.47a2.49,2.49,0,0,1,1.12,1.95Z"/><path class="cls-1" d="M164.87,163.39v2.47h-8.47l1-1q1.66-1.7,2.57-2.72a12.86,12.86,0,0,0,1.52-2.08,4,4,0,0,0,.61-2,1.51,1.51,0,0,0-.5-1.18,1.89,1.89,0,0,0-1.31-.44,1.81,1.81,0,0,0-1.24.41,1.21,1.21,0,0,0-.46.92,2.47,2.47,0,0,0,.69,1.77L157.68,161a2.14,2.14,0,0,1-.85-.8,4.51,4.51,0,0,1-.57-1.22,4,4,0,0,1-.19-1.11,3.55,3.55,0,0,1,.55-1.88,4,4,0,0,1,1.6-1.44,5.32,5.32,0,0,1,2.48-.55,4,4,0,0,1,2.08.54,3.85,3.85,0,0,1,1.43,1.44,3.78,3.78,0,0,1,.51,1.91,4.87,4.87,0,0,1-.36,1.84,8.62,8.62,0,0,1-.92,1.7q-.55.8-1.48,2Z"/><path class="cls-1" d="M168.8,165.24a4.6,4.6,0,0,1-1.77-2,7.43,7.43,0,0,1-.65-3.3q0-6,4.93-5.94a4.69,4.69,0,0,1,2.51.65,4.58,4.58,0,0,1,1.77,2,7.46,7.46,0,0,1,.65,3.3,7.6,7.6,0,0,1-.65,3.35,4.42,4.42,0,0,1-1.77,2,4.84,4.84,0,0,1-2.51.62A4.68,4.68,0,0,1,168.8,165.24Zm4.25-2.76a5.44,5.44,0,0,0,.52-2.6q0-3.39-2.28-3.39a1.83,1.83,0,0,0-1.73.92,5.22,5.22,0,0,0-.51,2.53,5.38,5.38,0,0,0,.51,2.56,1.82,1.82,0,0,0,1.73.94A1.84,1.84,0,0,0,173,162.48Z"/><path class="cls-1" d="M181.26,154.15v11.72h-2.58v-9.24h-.94v-2.48Z"/><path class="cls-1" d="M185.25,158.8a4.4,4.4,0,0,1-.72-.93,2.46,2.46,0,0,1-.22-1.14,2.31,2.31,0,0,1,.45-1.4,3,3,0,0,1,1.21-1,3.91,3.91,0,0,1,1.68-.35,4.18,4.18,0,0,1,1.69.34,3.12,3.12,0,0,1,1.24.94,2.1,2.1,0,0,1,.46,1.32,2.57,2.57,0,0,1-.24,1.23,4.42,4.42,0,0,1-.77,1,5.81,5.81,0,0,1,1.45,1.33,3.1,3.1,0,0,1,.58,1.95,3.52,3.52,0,0,1-.58,1.93,4.24,4.24,0,0,1-1.61,1.46,4.71,4.71,0,0,1-2.26.55,4.64,4.64,0,0,1-2.26-.55,4.19,4.19,0,0,1-1.58-1.46,3.56,3.56,0,0,1-.57-1.93A3.68,3.68,0,0,1,185.25,158.8Zm1.11,4.5a1.69,1.69,0,0,0,1.27.56,1.8,1.8,0,0,0,1.32-.56,1.82,1.82,0,0,0,.56-1.33,1.87,1.87,0,0,0-.53-1.33,1.71,1.71,0,0,0-1.29-.56,1.88,1.88,0,0,0-1.86,1.89A1.86,1.86,0,0,0,186.36,163.3Zm.72-5.63a.89.89,0,0,0,.62.27.86.86,0,0,0,.61-.27.84.84,0,0,0,.27-.62.87.87,0,0,0-.27-.63.85.85,0,0,0-.61-.27.88.88,0,0,0-.62.27.85.85,0,0,0-.28.63A.82.82,0,0,0,187.09,157.67Z"/><path class="cls-2" d="M109.17,153.06l-9.48-5.47a2.3,2.3,0,0,0-1.13-.27v4.44a1.53,1.53,0,0,1,.75.18l6.32,3.65a1.66,1.66,0,0,1,.75,1.3v7.3a1.66,1.66,0,0,1-.75,1.3l-6.32,3.65a1.53,1.53,0,0,1-.75.18v4.32a2.3,2.3,0,0,0,1.13-.27l9.48-5.47a2.49,2.49,0,0,0,1.12-1.95V155a2.49,2.49,0,0,0-1.12-1.95"/><path class="cls-1" d="M102,119.45v.79h-5.9v5h5.22V126H96.14v5.48h-.83v-12Z"/><path class="cls-1" d="M107.59,119.45v12h-.83v-12Z"/><path class="cls-1" d="M123.18,119.45v12.29h0l-9.24-10.41,0,10.12h-.81V119.2h.05l9.24,10.49,0-10.24Z"/><path class="cls-1" d="M135.34,127.48h-5.29l-1.59,4h-.83l5.07-12.52h.07l5.07,12.52h-.93Zm-.3-.78-2.31-5.9-2.37,5.9Z"/><path class="cls-1" d="M143.13,119.45v11.2h6.57v.79h-7.4v-12Z"/><path class="cls-1" d="M155,119.45v12h-.83v-12Z"/><path class="cls-1" d="M165.17,120.32a5.51,5.51,0,0,0-1.45-.2,2.89,2.89,0,0,0-1.89.58,1.85,1.85,0,0,0-.71,1.5,1.63,1.63,0,0,0,.38,1.09,3,3,0,0,0,1,.74q.59.3,1.52.65a10.73,10.73,0,0,1,1.68.76,3.47,3.47,0,0,1,1.12,1.06,3,3,0,0,1,.46,1.72,3.3,3.3,0,0,1-.47,1.77,3.17,3.17,0,0,1-1.33,1.19,4.34,4.34,0,0,1-2,.42,6.83,6.83,0,0,1-3.79-1.23l.39-.68a6.33,6.33,0,0,0,1.54.83,4.87,4.87,0,0,0,1.77.35,3.6,3.6,0,0,0,1.45-.3,2.64,2.64,0,0,0,1.12-.9,2.41,2.41,0,0,0,.43-1.44,2.19,2.19,0,0,0-.4-1.33,3,3,0,0,0-1-.87,11.45,11.45,0,0,0-1.51-.67,14,14,0,0,1-1.67-.72,3.36,3.36,0,0,1-1.11-.92,2.26,2.26,0,0,1-.45-1.44,2.64,2.64,0,0,1,.43-1.5,2.87,2.87,0,0,1,1.2-1,4.14,4.14,0,0,1,1.72-.38,6.86,6.86,0,0,1,1.68.22,7.6,7.6,0,0,1,1.55.56l-.32.64A8.23,8.23,0,0,0,165.17,120.32Z"/><path class="cls-1" d="M178.76,119.45v.79h-3.53v11.2h-.83v-11.2h-3.5v-.79Z"/></svg>